<svg width="14" height="16" viewBox="0 0 14 16" fill="none" xmlns="http://www.w3.org/2000/svg">
<path fill-rule="evenodd" clip-rule="evenodd" d="M0 5H14L12.4479 13.5367C12.1885 14.9631 10.9461 16 9.49627 16H4.50373C3.05387 16 1.81148 14.9631 1.55212 13.5367L0 5ZM2.39643 7L3.51986 13.1789C3.60631 13.6544 4.02044 14 4.50373 14H9.49627C9.97956 14 10.3937 13.6544 10.4801 13.1789L11.6036 7H2.39643Z" fill="black"/>
<path fill-rule="evenodd" clip-rule="evenodd" d="M5 4H3C3 1.79086 4.79086 0 7 0C9.20914 0 11 1.79086 11 4H9C9 2.89543 8.10457 2 7 2C5.89543 2 5 2.89543 5 4Z" fill="black"/>
</svg>
